<?xml version="1.0" encoding="utf-8"?>
<svg version="1.1" xmlns:xlink="http://www.w3.org/1999/xlink" width="175px" height="125px" xmlns="http://www.w3.org/2000/svg">
  <defs>
    <mask fill="white" id="clip41">
      <path d="M 175 0  L 0 0  L 0 103.37136107955  C 0 103.37136107955  20.7920792079208 127.412669748485  48.9480198019803 124.801754384787  C 77.1039603960396 122.190839021088  92.2648514851485 92.4264038749257  125.185643564356 90.3376715839669  C 158.106435643564 88.2489392930081  175 90.3376715839669  175 90.3376715839669  L 175 0  Z " fill-rule="evenodd" />
    </mask>
  </defs>
  <g transform="matrix(1 0 0 1 -640 -7940 )">
    <path d="M 175 0  L 0 0  L 0 103.37136107955  C 0 103.37136107955  20.7920792079208 127.412669748485  48.9480198019803 124.801754384787  C 77.1039603960396 122.190839021088  92.2648514851485 92.4264038749257  125.185643564356 90.3376715839669  C 158.106435643564 88.2489392930081  175 90.3376715839669  175 90.3376715839669  L 175 0  Z " fill-rule="nonzero" fill="#ffffff" stroke="none" fill-opacity="0" transform="matrix(1 0 0 1 640 7940 )" />
    <path d="M 175 0  L 0 0  L 0 103.37136107955  C 0 103.37136107955  20.7920792079208 127.412669748485  48.9480198019803 124.801754384787  C 77.1039603960396 122.190839021088  92.2648514851485 92.4264038749257  125.185643564356 90.3376715839669  C 158.106435643564 88.2489392930081  175 90.3376715839669  175 90.3376715839669  L 175 0  Z " stroke-width="8" stroke="#424242" fill="none" transform="matrix(1 0 0 1 640 7940 )" mask="url(#clip41)" />
  </g>
</svg>