<?xml version="1.0" encoding="utf-8"?>
<svg version="1.1" xmlns:xlink="http://www.w3.org/1999/xlink" width="180px" height="130px" xmlns="http://www.w3.org/2000/svg">
  <defs>
    <mask fill="white" id="clip42">
      <path d="M 23 12  L 23 0  L 175 0  L 175 70  L 161 70  L 161 82  L 150 82  L 150 96.820816652502  C 150.880622238511 96.820816652502  136.24294993179 95.1222058340373  107.718255180231 96.820816652502  C 79.1935604286713 98.5194274709671  66.0571878457163 122.724631634093  41.6610673345142 124.847895157174  C 17.2649468233123 126.971158680255  0 106.163176154059  0 106.163176154059  L 0 25  L 12 25  L 12 12  L 23 12  Z " fill-rule="evenodd" />
    </mask>
  </defs>
  <g transform="matrix(1 0 0 1 -833 -7793 )">
    <path d="M 23 12  L 23 0  L 175 0  L 175 70  L 161 70  L 161 82  L 150 82  L 150 96.820816652502  C 150.880622238511 96.820816652502  136.24294993179 95.1222058340373  107.718255180231 96.820816652502  C 79.1935604286713 98.5194274709671  66.0571878457163 122.724631634093  41.6610673345142 124.847895157174  C 17.2649468233123 126.971158680255  0 106.163176154059  0 106.163176154059  L 0 25  L 12 25  L 12 12  L 23 12  Z " fill-rule="nonzero" fill="#ffffff" stroke="none" fill-opacity="0" transform="matrix(1 0 0 1 835 7795 )" />
    <path d="M 23 12  L 23 0  L 175 0  L 175 70  L 161 70  L 161 82  L 150 82  L 150 96.820816652502  C 150.880622238511 96.820816652502  136.24294993179 95.1222058340373  107.718255180231 96.820816652502  C 79.1935604286713 98.5194274709671  66.0571878457163 122.724631634093  41.6610673345142 124.847895157174  C 17.2649468233123 126.971158680255  0 106.163176154059  0 106.163176154059  L 0 25  L 12 25  L 12 12  L 23 12  Z " stroke-width="8" stroke="#555555" fill="none" transform="matrix(1 0 0 1 835 7795 )" mask="url(#clip42)" />
    <path d="M 150.800195467595 24.7252747252747  L 12.3052959501557 24.8626373626373  M 22.6803493983263 12.087912087912  L 161.657809541262 12.2252747252747  M 161.537169384888 70.8791208791208  L 161.657809541262 12.087912087912  M 150 24.7252747252747  L 150 82.6923076923077  " stroke-width="4" stroke="#555555" fill="none" transform="matrix(1 0 0 1 835 7795 )" mask="url(#clip42)" />
  </g>
</svg>