<?xml version="1.0" encoding="utf-8"?>
<svg version="1.1" xmlns:xlink="http://www.w3.org/1999/xlink" width="175px" height="125px" xmlns="http://www.w3.org/2000/svg">
  <g transform="matrix(1 0 0 1 -640 -8085 )">
    <path d="M 811.5 8110  C 811.5 8110  811.5 8185  811.5 8185  C 811.5 8198.44  769.64 8206.5  727.5 8206.5  C 685.36 8206.5  643.5 8198.44  643.5 8185  C 643.5 8185  643.5 8110  643.5 8110  C 643.5 8096.56  685.36 8088.5  727.5 8088.5  C 769.64 8088.5  811.5 8096.56  811.5 8110  Z " fill-rule="nonzero" fill="#ffffff" stroke="none" fill-opacity="0" />
    <path d="M 642 8111.2  C 642 8097.648  679.62 8087  727.5 8087  C 775.38 8087  813 8097.648  813 8111.2  C 813 8111.2  813 8183.8  813 8183.8  C 813 8197.352  775.38 8208  727.5 8208  C 679.62 8208  642 8197.352  642 8183.8  C 642 8183.8  642 8111.2  642 8111.2  Z " stroke-width="4" stroke="#555555" fill="none" />
    <path d="M 813 8110  C 813 8122.88  775.38 8133  727.5 8133  C 679.62 8133  642 8122.88  642 8110  " stroke-width="4" stroke="#555555" fill="none" />
  </g>
</svg>